<svg width="86" height="40" viewBox="0 0 86 40" fill="none" xmlns="http://www.w3.org/2000/svg">
<path d="M16.8915 22.3818L9.80947 33.4416L2.77029 22.3818H0V35.8436H2.77029V27.323L8.28088 35.8436H11.3809L16.8915 27.2844V35.8436H19.6617V22.3818H16.8915Z" fill="#1B1464"/>
<path d="M31.3333 25.5021L27.8694 33.0937L24.444 25.5021H21.5752L26.542 35.7441L24.2598 40.0001H27.0687L34.2235 25.5021H31.3333Z" fill="#1B1464"/>
<path d="M49.5651 30.1519C49.1669 30.0577 48.6745 30.0021 48.135 29.9635C48.4604 29.9121 48.8029 29.8822 49.1027 29.7965C49.6165 29.651 50.0703 29.4412 50.4643 29.1628C50.8625 28.8888 51.1665 28.5249 51.3891 28.0796C51.6118 27.6343 51.7231 27.0948 51.7231 26.4568C51.7231 25.5148 51.509 24.7398 51.0766 24.1361C50.6484 23.5324 50.0489 23.0871 49.2782 22.8045C48.5075 22.5219 47.6041 22.3763 46.5636 22.3763H37.4349V35.8381H40.2009V30.867H45.4247C46.2981 30.867 46.9661 30.9226 47.4328 31.034C47.8995 31.1453 48.2206 31.3422 48.4005 31.6248C48.5803 31.9074 48.6702 32.3099 48.6702 32.8237V35.8424H51.4405V32.6353C51.4405 31.886 51.2864 31.3208 50.9695 30.9398C50.6569 30.5587 50.1902 30.2975 49.5651 30.1519ZM40.2052 28.7047V24.7526H46.5722C47.3472 24.7526 47.9423 24.9154 48.3534 25.2322C48.7644 25.5491 48.9657 26.0158 48.9657 26.6238C48.9657 27.2617 48.7644 27.767 48.3534 28.1438C47.9423 28.5163 47.3514 28.7047 46.5722 28.7047H40.2052Z" fill="#1B1464"/>
<path d="M63.6305 32.4084H66.2552C66.1439 33.1149 65.8484 33.7486 65.3732 34.301C64.8936 34.8576 64.2471 35.2943 63.4293 35.6112C62.6114 35.928 61.6095 36.0907 60.432 36.0907C59.1133 36.0907 57.9486 35.8809 56.9381 35.457C55.9276 35.0374 55.1355 34.4209 54.5661 33.6159C53.9966 32.8109 53.714 31.839 53.714 30.7043C53.714 29.5654 53.9923 28.5934 54.5489 27.7799C55.1013 26.9706 55.8763 26.3455 56.8696 25.9173C57.8587 25.4892 59.0233 25.2708 60.355 25.2708C61.7166 25.2708 62.8427 25.4892 63.7461 25.9173C64.6453 26.3455 65.3175 26.9963 65.7542 27.8612C66.191 28.7261 66.3751 29.8351 66.3066 31.1796H56.4329C56.5014 31.7062 56.6984 32.1858 57.0238 32.614C57.3492 33.0421 57.7945 33.3847 58.3554 33.633C58.9163 33.8856 59.5843 34.0055 60.3635 34.0055C61.2242 34.0055 61.9435 33.8557 62.5172 33.5602C63.091 33.2648 63.4635 32.8794 63.6305 32.4084ZM60.2179 27.3303C59.2203 27.3303 58.4068 27.5487 57.7859 27.9854C57.1608 28.4221 56.7583 28.9616 56.5785 29.5953H63.6091C63.5406 28.9017 63.2109 28.3494 62.62 27.9426C62.0291 27.5358 61.2284 27.3303 60.2179 27.3303Z" fill="#1B1464"/>
<path d="M68.2342 32.4086H70.7304C70.8846 32.8796 71.1972 33.2649 71.6767 33.5647C72.1563 33.8644 72.7814 34.01 73.5607 34.01C74.0873 34.01 74.4984 33.9629 74.7895 33.8644C75.0807 33.7659 75.2819 33.6246 75.3933 33.4362C75.5046 33.2521 75.5602 33.038 75.5602 32.8025C75.5602 32.5114 75.4703 32.2844 75.2905 32.126C75.1107 31.9676 74.8323 31.8391 74.4556 31.7406C74.083 31.6422 73.6035 31.5523 73.0212 31.4709C72.4389 31.3724 71.878 31.2568 71.3342 31.1155C70.7947 30.9785 70.3151 30.7944 69.8998 30.5632C69.4845 30.3362 69.1548 30.0451 68.9107 29.6897C68.6666 29.3343 68.5468 28.9019 68.5468 28.3881C68.5468 27.8871 68.6666 27.4461 68.9107 27.0564C69.1548 26.6668 69.493 26.3414 69.9298 26.0802C70.3665 25.8147 70.8803 25.6135 71.4669 25.4765C72.0578 25.3395 72.6915 25.2667 73.368 25.2667C74.3956 25.2667 75.2477 25.4165 75.9285 25.7162C76.6093 26.016 77.1188 26.4313 77.4571 26.9622C77.7953 27.4974 77.9666 28.1097 77.9666 28.8034H75.5731C75.4618 28.2896 75.2391 27.9213 74.9094 27.6901C74.5754 27.4632 74.0616 27.3476 73.368 27.3476C72.6872 27.3476 72.1777 27.4546 71.8308 27.6602C71.484 27.8657 71.3128 28.1526 71.3128 28.5122C71.3128 28.8034 71.4198 29.0303 71.6339 29.1887C71.848 29.3472 72.1691 29.4756 72.593 29.5741C73.0126 29.6726 73.5478 29.7753 74.1858 29.8867C74.7253 29.998 75.2434 30.1222 75.7358 30.2635C76.2282 30.4005 76.6692 30.5803 77.0546 30.7944C77.4442 31.0085 77.7525 31.2954 77.9794 31.6465C78.2064 31.9976 78.322 32.4471 78.322 32.9866C78.322 33.6546 78.1293 34.2155 77.7482 34.6736C77.3671 35.1318 76.8234 35.4829 76.1126 35.7227C75.4061 35.9667 74.5583 36.0866 73.5735 36.0866C72.7 36.0866 71.9465 35.9924 71.317 35.804C70.6876 35.6199 70.161 35.3758 69.7456 35.0761C69.3303 34.7764 69.0092 34.4596 68.778 34.1213C68.551 33.783 68.3926 33.4576 68.307 33.1536C68.2342 32.8539 68.2085 32.6013 68.2342 32.4086Z" fill="#1B1464"/>
<path d="M85.6133 25.502H82.9501V22.6717H80.244V35.8423H82.9501V27.6043H85.6133V25.502Z" fill="#1B1464"/>
<path d="M73.1146 8.47784C75.4557 8.47784 77.3536 6.58001 77.3536 4.23892C77.3536 1.89783 75.4557 0 73.1146 0C70.7736 0 68.8757 1.89783 68.8757 4.23892C68.8757 6.58001 70.7736 8.47784 73.1146 8.47784Z" fill="#8971FF"/>
<path d="M61.464 11.3552C63.8051 11.3552 65.7029 9.45739 65.7029 7.1163C65.7029 4.77521 63.8051 2.87738 61.464 2.87738C59.1229 2.87738 57.2251 4.77521 57.2251 7.1163C57.2251 9.45739 59.1229 11.3552 61.464 11.3552Z" fill="#F7931E"/>
<path d="M82.9504 20.2483C82.9205 17.5294 81.6788 14.8448 79.6278 13.0636C77.6154 11.2781 74.8323 10.396 72.1776 10.7214C69.7627 10.9783 67.4634 12.2415 65.9134 14.1297C65.1427 13.7187 64.2992 13.4532 63.4214 13.3676C60.9594 13.1149 58.369 14.0098 56.5235 15.7568C54.7038 17.4481 53.6548 19.9272 53.7147 22.3806L54.3955 22.3763C54.4255 20.1327 55.4531 17.919 57.1572 16.4461C58.84 14.9604 61.1178 14.2496 63.2801 14.545C63.9395 14.635 64.5818 14.8533 65.1684 15.1787C64.5946 16.1079 64.1836 17.1398 63.9652 18.2016C63.841 18.8096 63.7768 19.4605 63.7725 20.1241C63.7383 20.942 64.0851 21.7983 64.6674 22.3464C65.1941 22.8816 65.9305 23.1813 66.7184 23.1813C66.7869 23.1813 66.8554 23.1813 66.9239 23.1727C67.7802 23.1171 68.5467 22.7189 69.0134 22.0937C69.4972 21.52 69.737 20.6465 69.6257 19.9015C69.5957 19.2935 69.463 18.6427 69.2317 17.9747C68.8806 16.9514 68.2812 16.0394 67.5233 15.2986C68.7864 13.9242 70.5676 13.0464 72.3959 12.918C74.4169 12.751 76.5107 13.4832 77.9793 14.8876C79.448 16.262 80.2915 18.2616 80.2401 20.244L82.9504 20.2483ZM67.7888 21.1004C67.5661 21.3744 67.215 21.5371 66.8297 21.5457C66.4358 21.55 66.1018 21.4129 65.8706 21.1603C65.6137 20.8863 65.4981 20.5566 65.528 20.1712C65.5494 19.6189 65.6222 19.0922 65.7421 18.6041C65.9305 17.8291 66.2516 17.0755 66.6798 16.3947C67.2108 16.9856 67.6175 17.6836 67.8487 18.4371C68.02 18.9938 68.1056 19.4947 68.1099 19.9914C68.1485 20.441 68.05 20.7835 67.7888 21.1004Z" fill="#1B1464"/>
</svg>
