<svg width="60" height="48" viewBox="0 0 60 48" fill="none" xmlns="http://www.w3.org/2000/svg">
<g id="Group 9">
<path id="Vector" d="M12 48H0V0C6.62667 0 12 5.37333 12 12V48Z" fill="#E50915"/>
<path id="Vector_2" d="M24 24H36C36 10.7467 25.2533 0 12 0V12C18.6167 12 24 17.3833 24 24Z" fill="#E50915"/>
<path id="Vector_3" d="M48 24H60C60 10.7467 49.2533 0 36 0V12C42.6167 12 48 17.3833 48 24Z" fill="#E50915"/>
<path id="Vector_4" d="M48 48H60C60 34.7467 49.2533 24 36 24V36C42.6167 36 48 41.3833 48 48Z" fill="#E50915"/>
<path id="Vector_5" d="M24 24H12C12 37.2533 22.7467 48 36 48V36C29.3833 36 24 30.6167 24 24Z" fill="#E50915"/>
</g>
</svg>
